# xmcd CD database file
#
# Track frame offsets:
#	150
#	15341
#	34013
#	47914
#	57299
#	77524
#	92092
#	113615
#	132438
#	148654
#	165203
#	194346
#	224910
#	242838
#	265113
#
# Disc length: 3665 seconds
#
# Revision: 0
# Processed by: cddbd v1.5.2PL0 Copyright (c) Steve Scherf et al.
# Submitted via: CDex 1.51
#
DISCID=cb0e4f0f
DTITLE=Various Artist - When Jazz meet Pop
DYEAR=2007
DGENRE=Jazz
TTITLE0=Bad - Erika Stucky 
TTITLE1=Walk On The Wild Side - Pink Turtle 
TTITLE2=California Dreaming - Wes Montgomery 
TTITLE3=Highway To Hell - Karen Lanaud 
TTITLE4=Say It Ain'T So - Aldo Romano and Baptiste Trotignon and Rémi Vignolo
TTITLE5=Spinning Wheel - Chet Baker 
TTITLE6=Horse With No Name - Arcoiris 
TTITLE7=I Heard It Through The Grapevine - Earl Klugh 
TTITLE8=Stayin' Alive - Eldissa 
TTITLE9=I Can See For Miles - Lord Sitar 
TTITLE10=Ode To Billy Joe - Lou Donaldson 
TTITLE11=Just The Way You Are - Biréli Lagrène 
TTITLE12=I Got You (I Feel Good) - Quincy Jones 
TTITLE13=Fifty Ways To Leave Your Lover - Bugge Wesseltoft and Sidsel Endresen
TTITLE14=Unfinished Sympathy - Maxence Cyrin 
EXTD=YEAR: 2007
EXTT0=
EXTT1=
EXTT2=
EXTT3=
EXTT4=
EXTT5=
EXTT6=
EXTT7=
EXTT8=
EXTT9=
EXTT10=
EXTT11=
EXTT12=
EXTT13=
EXTT14=
PLAYORDER=
